<?xml version="1.0" standalone="no"?>
<!DOCTYPE svg PUBLIC "-//W3C//DTD SVG 20010904//EN"
 "http://www.w3.org/TR/2001/REC-SVG-20010904/DTD/svg10.dtd">
<svg version="1.0" xmlns="http://www.w3.org/2000/svg"
 width="700.000000pt" height="700.000000pt" viewBox="0 0 700.000000 700.000000"
 preserveAspectRatio="xMidYMid meet">
<metadata>
Created by potrace 1.14, written by Peter Selinger 2001-2017
</metadata>
<g transform="translate(0.000000,700.000000) scale(0.100000,-0.100000)"
fill="#000000" stroke="none">
<path d="M3339 6985 c-41 -8 -111 -27 -155 -43 -79 -28 -2417 -1326 -2555
-1418 -166 -111 -296 -301 -355 -520 -18 -66 -19 -132 -19 -1504 0 -1372 1
-1438 19 -1504 60 -223 196 -418 369 -530 79 -51 2432 -1365 2494 -1392 198
-88 457 -95 676 -19 65 23 2440 1340 2557 1418 72 48 191 175 243 259 59 94
112 238 126 342 15 108 15 2744 0 2852 -14 104 -67 248 -126 342 -55 89 -174
214 -253 265 -82 53 -2415 1356 -2486 1388 -150 68 -372 95 -535 64z m2189
-1706 c54 -27 104 -93 132 -175 11 -34 54 -238 95 -455 40 -217 153 -762 249
-1211 171 -798 177 -823 246 -1014 100 -276 120 -341 127 -406 8 -79 -14 -135
-77 -191 -145 -131 -298 -69 -415 168 -89 181 -160 439 -236 860 -18 99 -36
184 -40 189 -9 10 -137 -8 -324 -45 -199 -40 -920 -191 -926 -195 -4 -2 -9
-14 -13 -27 -24 -96 -380 -867 -425 -918 -47 -55 -98 -79 -168 -79 -123 1
-224 86 -239 202 -10 73 60 261 236 638 121 260 115 243 96 290 -31 78 -16
200 32 253 25 29 83 63 133 80 44 15 45 16 163 228 204 366 530 905 753 1242
206 311 372 522 448 569 40 24 99 23 153 -3z m-2928 -24 c291 -47 540 -143
605 -232 31 -43 32 -136 3 -193 -49 -96 -156 -113 -413 -64 -302 56 -352 63
-465 64 -127 0 -206 -10 -325 -41 -211 -55 -408 -190 -499 -342 -34 -57 -66
-166 -66 -224 0 -87 51 -160 149 -211 129 -69 253 -93 656 -127 336 -29 530
-87 735 -220 134 -87 260 -226 329 -364 145 -288 130 -656 -39 -938 -199 -331
-639 -582 -1139 -648 -142 -19 -412 -19 -553 1 -400 55 -734 218 -872 426 -68
102 -102 253 -77 344 28 104 166 175 279 144 56 -14 109 -63 180 -164 122
-174 220 -244 407 -291 281 -72 640 -46 921 66 256 102 422 252 486 437 32 94
32 252 -1 334 -98 249 -441 425 -891 458 -80 6 -201 17 -270 25 -419 47 -721
249 -795 531 -20 75 -20 250 -1 324 68 258 259 484 579 682 215 134 434 210
697 242 63 8 283 -4 380 -19z"/>
<path d="M4980 3913 c-179 -289 -327 -530 -329 -536 -2 -6 7 -8 25 -4 16 3
112 24 214 46 102 22 279 58 393 79 114 22 210 41 212 44 6 6 -175 880 -184
889 -3 4 -152 -229 -331 -518z"/>
</g>
</svg>
