<?xml version="1.0" standalone="no"?>
<!DOCTYPE svg PUBLIC "-//W3C//DTD SVG 20010904//EN"
 "http://www.w3.org/TR/2001/REC-SVG-20010904/DTD/svg10.dtd">
<svg version="1.0" xmlns="http://www.w3.org/2000/svg"
 width="700.000000pt" height="700.000000pt" viewBox="0 0 700.000000 700.000000"
 preserveAspectRatio="xMidYMid meet">
<metadata>
Created by potrace 1.14, written by Peter Selinger 2001-2017
</metadata>
<g transform="translate(0.000000,700.000000) scale(0.100000,-0.100000)"
fill="#000000" stroke="none">
<path d="M3326 6984 c-44 -8 -116 -29 -160 -47 -92 -37 -2459 -1357 -2551
-1422 -171 -121 -302 -324 -346 -538 -18 -88 -19 -155 -19 -1477 0 -1322 1
-1389 19 -1477 44 -214 175 -417 346 -538 64 -45 2408 -1359 2509 -1406 207
-97 495 -103 711 -16 91 37 2458 1357 2550 1422 172 122 302 324 346 538 18
88 19 155 19 1477 0 1322 -1 1389 -19 1477 -44 214 -174 416 -346 538 -65 46
-2385 1347 -2500 1401 -38 19 -106 43 -150 55 -106 28 -299 34 -409 13z m2219
-1715 c43 -29 87 -93 114 -163 10 -28 51 -224 91 -436 39 -212 152 -761 251
-1220 178 -834 179 -835 254 -1045 87 -240 125 -364 125 -409 0 -143 -151
-263 -286 -227 -120 32 -237 228 -328 551 -34 118 -127 565 -142 678 -8 63 -1
62 -199 27 -205 -36 -1059 -214 -1065 -223 -4 -4 -30 -65 -60 -137 -127 -308
-339 -759 -381 -809 -42 -50 -99 -76 -169 -76 -71 0 -124 25 -176 82 -58 63
-73 130 -49 214 30 106 159 407 303 713 38 81 39 84 24 115 -9 17 -18 61 -20
98 -7 116 41 183 165 233 l58 23 108 194 c233 415 508 868 744 1227 229 347
368 528 457 593 36 26 47 29 93 26 33 -3 65 -13 88 -29z m-3080 1 c313 -30
629 -130 718 -229 43 -48 52 -75 44 -143 -8 -67 -38 -112 -93 -139 -41 -20
-57 -21 -152 -16 -65 3 -179 20 -292 44 -178 37 -192 38 -375 37 -172 0 -199
-3 -287 -27 -185 -49 -342 -139 -451 -257 -87 -94 -137 -211 -137 -320 1 -123
103 -215 300 -269 87 -25 235 -44 489 -66 101 -9 227 -24 281 -34 456 -89 778
-365 872 -748 25 -104 30 -320 9 -418 -29 -139 -92 -288 -163 -386 -152 -212
-433 -403 -741 -503 -389 -128 -863 -129 -1242 -4 -108 35 -275 113 -342 159
-68 47 -168 144 -203 199 -62 97 -96 257 -70 334 35 107 173 179 277 146 61
-20 98 -54 187 -174 125 -167 189 -217 341 -265 130 -42 228 -55 415 -55 185
0 296 16 454 65 204 63 359 151 470 269 112 119 163 252 153 405 -12 196 -127
343 -353 455 -179 88 -367 131 -654 150 -200 13 -326 33 -445 71 -288 92 -479
266 -530 481 -32 135 -13 318 45 453 95 220 371 474 685 632 147 74 356 135
520 152 116 12 148 12 270 1z"/>
<path d="M4995 3938 c-170 -275 -320 -517 -333 -538 l-23 -38 58 14 c116 28
482 103 633 130 85 15 159 31 163 34 8 7 -170 879 -182 892 -3 3 -145 -219
-316 -494z"/>
</g>
</svg>
